# xmcd CD database file
#
# Track frame offsets:
#	150
#	21010
#	48932
#	65185
#	91940
#	123625
#	133835
#	152507
#	170742
#	189570
#	204172
#	239767
#	254187
#	278045
#	306555
#
# Disc length: 4324 seconds
#
# Revision: 0
# Processed by: cddbd v1.5.2PL0 Copyright (c) Steve Scherf et al.
# Submitted via: CDex 1.51
#
DISCID=e510e20f
DTITLE=Marcey Hamm - Sampler I
DYEAR=1993
DGENRE=New Age
TTITLE0=Inward Harmony
TTITLE1=Dream Partner Concerto
TTITLE2=Love is Light to Our Soul
TTITLE3=Changing Lifetimes
TTITLE4=Loving Yourself
TTITLE5=Giza Pyramid
TTITLE6=The Singing Monk
TTITLE7=Letting Go
TTITLE8=Leaving the Physical
TTITLE9=The Mirror
TTITLE10=Bridge to No Time
TTITLE11=The Love Kiss
TTITLE12=The Day of the Gladiator
TTITLE13=My Friend Z
TTITLE14=Anthem to Soul
EXTD=YEAR: 1993
EXTT0=
EXTT1=
EXTT2=
EXTT3=
EXTT4=
EXTT5=
EXTT6=
EXTT7=
EXTT8=
EXTT9=
EXTT10=
EXTT11=
EXTT12=
EXTT13=
EXTT14=
PLAYORDER=
